<svg width="1023" height="565" viewBox="0 0 1023 565" fill="none" xmlns="http://www.w3.org/2000/svg">
<path d="M1002.76 564.15H20.9001C9.82009 564.15 0.830078 555.17 0.830078 544.08V431.85H1022.83V544.09C1022.83 555.17 1013.85 564.15 1002.76 564.15Z" fill="#FDB913"/>
<path fill-rule="evenodd" clip-rule="evenodd" d="M1022.43 409.74H0V20.55C0 9.19999 9.19996 0 20.55 0H1001.88C1013.23 0 1022.43 9.19999 1022.43 20.55V409.74Z" fill="#FDB913"/>
<path fill-rule="evenodd" clip-rule="evenodd" d="M305.88 118.65L253.49 220.27L337.59 220.1L376.82 294.97L214.82 295.4L179.91 363.09H72.6904L237.81 45.72H371.82L508.01 291.26L637.75 44.65H824.83C824.83 44.65 951.36 36.06 949.74 165.28V218.35C949.74 218.35 946.54 288.05 852.18 294.46H637.62L677.15 219.42H824.32C824.32 219.42 851.67 216.73 858.63 192.07V159.8C858.63 159.8 864.27 128.09 822.44 123.52H703.03L573.94 365.21H442.06L305.88 118.65Z" fill="black"/>
<path d="M66.0503 522.3H48.4203L45.7503 536.28H28.6104L46.1203 458.95H68.2503L86.2503 536.28H68.7403L66.0503 522.3ZM63.4903 509.65L57.1703 476.94L50.8503 509.65H63.4903Z" fill="black"/>
<path d="M142.89 458.95L125.87 536.28H104.59L87.4502 458.95H105.57L115.18 516.34L124.91 458.95H142.89Z" fill="black"/>
<path d="M181.06 458.95C192.12 458.95 196.38 464.06 196.38 472.33V495.8C196.38 504.19 192.12 509.3 181.06 509.3H166.47V536.29H149.2V458.96H181.06V458.95ZM179 474.76C179 472.57 178.15 471.72 175.84 471.72H166.48V496.52H175.83C178.14 496.52 178.99 495.67 178.99 493.48V474.76H179Z" fill="black"/>
<path d="M244.041 458.95V536.28H226.771V458.95H244.041Z" fill="black"/>
<path d="M303.621 458.95V536.28H288.061L271.161 489.95V536.28H255.351V458.95H271.041L287.701 505.15V458.95H303.621Z" fill="black"/>
<path d="M331.821 471.72V493H352.131V505.04H331.821V536.29H314.431V458.96H356.011V471.73H331.821V471.72Z" fill="black"/>
<path d="M383.25 507.34H380.21V536.28H362.94V458.95H394.8C405.86 458.95 410.12 464.06 410.12 472.33V493.97C410.12 500.66 407.32 505.28 400.39 506.86L414.01 536.28H395.41L383.25 507.34ZM380.21 495.06H389.57C391.88 495.06 392.73 494.33 392.73 492.14V474.75C392.73 472.56 391.88 471.71 389.57 471.71H380.21V495.06Z" fill="black"/>
<path d="M452.55 522.3H434.92L432.25 536.28H415.11L432.62 458.95H454.75L472.75 536.28H455.23L452.55 522.3ZM450 509.65L443.68 476.94L437.36 509.65H450Z" fill="black"/>
<path d="M506.9 486.07V473.91C506.9 471.72 506.05 470.87 503.74 470.87H498.75C496.32 470.87 495.47 471.72 495.47 473.91V521.33C495.47 523.64 496.32 524.37 498.75 524.37H503.74C506.05 524.37 506.9 523.64 506.9 521.33V509.54H524.41V522.91C524.41 531.18 520.03 536.29 508.97 536.29H493.41C482.35 536.29 478.09 531.18 478.09 522.91V472.33C478.09 464.06 482.35 458.95 493.41 458.95H508.97C520.03 458.95 524.41 464.06 524.41 472.33V486.07H506.9Z" fill="black"/>
<path d="M564.65 458.95C575.71 458.95 579.97 464.06 579.97 472.33V522.79C579.97 531.18 575.71 536.29 564.65 536.29H548.36C537.29 536.29 532.92 531.18 532.92 522.79V472.33C532.92 464.06 537.3 458.95 548.36 458.95H564.65ZM562.58 474.76C562.58 472.57 561.73 471.72 559.42 471.72H553.58C551.15 471.72 550.3 472.57 550.3 474.76V520.48C550.3 522.67 551.15 523.52 553.58 523.52H559.42C561.73 523.52 562.58 522.67 562.58 520.48V474.76Z" fill="black"/>
<path d="M638.69 458.95V536.28H623.13L606.23 489.95V536.28H590.42V458.95H606.11L622.77 505.15V458.95H638.69Z" fill="black"/>
<path d="M710.791 523.51V536.28H671.271V458.95H688.541V523.51H710.791Z" fill="black"/>
<path d="M734.01 458.95V536.28H716.74V458.95H734.01Z" fill="black"/>
<path d="M770.601 519.5L760.631 484.48V536.28H745.311V458.95H764.281L777.051 502.72L789.821 458.95H808.791V536.28H793.471V484.36L783.501 519.5H770.601Z" fill="black"/>
<path d="M837.35 458.95V536.28H820.08V458.95H837.35Z" fill="black"/>
<path d="M889.51 471.72H875.28V536.28H857.89V471.72H843.79V458.95H889.51V471.72Z" fill="black"/>
<path d="M937.78 523.51V536.28H895.59V458.95H936.81V471.72H912.98V490.57H933.29V503.34H912.98V523.52H937.78V523.51Z" fill="black"/>
<path d="M978.39 458.95C989.45 458.95 993.83 464.06 993.83 472.33V522.79C993.83 531.18 989.45 536.29 978.39 536.29H946.17V458.96H978.39V458.95ZM976.44 473.91C976.44 471.72 975.47 470.87 973.16 470.87H963.55V524.37H973.16C975.47 524.37 976.44 523.52 976.44 521.33V473.91Z" fill="black"/>
</svg>
